# File created by Blade
# Date/Time:  Wed Jan 21 16:09:38 2015
# Frame Rate: 120.000 fps
#------------------------------------------------------
:FULLY-SPECIFIED
:DEGREES
186
root 16.333070 34.011708 -22.022427 -177.406389 79.017842 -184.320083
Spine -4.092406 -2.536145 1.038212
Head 26.347713 -8.896146 -2.137934
LeftShoulder -15.748113 -30.452334 20.470792
LeftArm -9.026545 2.743590 -14.889296
LeftForeArm 4.136119 -0.000000 -1.156400
LeftHand -7.087164 -0.000000 2.500701
LeftHandThumb1 -26.253704 0.000000 33.147579
RightShoulder -13.222932 -7.061220 -9.499250
RightArm 9.669943 39.200051 20.789741
RightForeArm -33.014411 -0.000000 5.382204
RightHand -7.079381 -0.000000 2.590985
RightHandThumb1 -24.326973 -0.000000 -32.862282
LeftUpLeg 16.788315 3.436036 -5.420427
LeftLeg -9.666543 -0.000000 0.000000
LeftFoot -5.199233 27.653267 11.521642
LeftToeBase -142.571611 -0.000000 0.000000
RightUpLeg -35.420095 16.151360 -6.387458
RightLeg 29.806016 -0.000000 -0.000000
RightFoot -15.218471 3.129898 14.750466
RightToeBase 29.691873 -0.000000 -0.000000
187
root 16.227873 33.979955 -22.064973 -177.991522 79.062384 -184.723449
Spine -4.044221 -2.681999 0.949966
Head 26.304753 -8.943844 -2.092566
LeftShoulder -15.699050 -30.535741 20.518258
LeftArm -8.550688 2.798669 -14.924890
LeftForeArm 4.395091 -0.000000 -1.167265
LeftHand -7.036531 -0.000000 2.596960
LeftHandThumb1 -26.253704 0.000000 33.147579
RightShoulder -13.302225 -7.061296 -9.483453
RightArm 9.581422 39.357525 20.536475
RightForeArm -33.051558 -0.000000 5.372215
RightHand -7.055992 -0.000000 2.784866
RightHandThumb1 -24.326973 -0.000000 -32.862282
LeftUpLeg 16.904611 3.677244 -5.545336
LeftLeg -9.765700 -0.000000 0.000000
LeftFoot -5.703534 27.540919 11.684152
LeftToeBase -142.318199 -0.000000 0.000000
RightUpLeg -35.491587 15.955505 -6.454200
RightLeg 30.004856 -0.000000 -0.000000
RightFoot -15.009960 3.177868 14.551260
RightToeBase 29.477757 -0.000000 -0.000000
188
root 16.123717 33.950378 -22.108652 -178.663386 79.064991 -185.204112
Spine -3.989689 -2.892278 0.848574
Head 26.297058 -8.928475 -2.064213
LeftShoulder -15.703046 -30.581687 20.560599
LeftArm -8.027382 2.921933 -14.954561
LeftForeArm 4.578886 -0.000000 -1.190820
LeftHand -7.072491 -0.000000 2.584860
LeftHandThumb1 -26.253704 0.000000 33.147579
RightShoulder -13.374167 -7.138068 -9.433496
RightArm 9.567415 39.497655 20.300013
RightForeArm -32.971273 0.000000 5.322098
RightHand -7.093458 -0.000000 2.762438
RightHandThumb1 -24.326973 -0.000000 -32.862282
LeftUpLeg 17.009340 3.863650 -5.685135
LeftLeg -9.821910 -0.000000 0.000000
LeftFoot -6.218841 27.402388 11.804360
LeftToeBase -142.054513 -0.000000 0.000000
RightUpLeg -35.558176 15.840258 -6.587425
RightLeg 30.192801 -0.000000 -0.000000
RightFoot -14.801604 3.136174 14.314072
RightToeBase 29.157701 -0.000000 -0.000000
189
root 16.018262 33.923529 -22.148559 -179.348524 79.093824 -185.719573
Spine -3.956994 -2.980144 0.715614
Head 26.288908 -8.990763 -2.001072
LeftShoulder -15.580457 -30.575768 20.511045
LeftArm -7.514137 2.946018 -14.926994
LeftForeArm 4.701776 -0.000000 -1.231239
LeftHand -6.893030 0.000000 2.463937
LeftHandThumb1 -26.253704 0.000000 33.147579
RightShoulder -13.479735 -7.008876 -9.453903
RightArm 9.354541 39.512188 20.034672
RightForeArm -33.002810 -0.000000 5.358441
RightHand -7.003134 -0.000000 2.911183
RightHandThumb1 -24.326973 -0.000000 -32.862282
LeftUpLeg 17.052762 4.106075 -5.816983
LeftLeg -9.808003 -0.000000 0.000000
LeftFoot -6.677395 27.266384 12.041070
LeftToeBase -141.736262 -0.000000 0.000000
RightUpLeg -35.661269 15.681378 -6.672006
RightLeg 30.407609 -0.000000 -0.000000
RightFoot -14.523565 3.013633 14.143206
RightToeBase 28.747967 -0.000000 -0.000000
190
root 15.912563 33.899530 -22.186717 -180.055443 79.106260 -186.268360
Spine -3.936874 -3.149448 0.566864
Head 26.303114 -8.940889 -1.920535
LeftShoulder -15.547183 -30.496425 20.508709
LeftArm -6.990245 2.917920 -14.921083
LeftForeArm 4.921889 -0.000000 -1.266085
LeftHand -6.884883 -0.000000 2.506438
LeftHandThumb1 -26.253704 0.000000 33.147579
RightShoulder -13.531951 -6.987045 -9.421639
RightArm 9.246820 39.565898 19.808263
RightForeArm -32.860051 -0.000000 5.339458
RightHand -7.079101 -0.000000 2.922671
RightHandThumb1 -24.326973 -0.000000 -32.862282
LeftUpLeg 17.080250 4.287646 -5.962914
LeftLeg -9.788127 -0.000000 0.000000
LeftFoot -7.166964 27.056496 12.171751
LeftToeBase -141.493370 -0.000000 0.000000
RightUpLeg -35.774455 15.502860 -6.735058
RightLeg 30.633833 -0.000000 -0.000000
RightFoot -14.194701 2.790911 14.036506
RightToeBase 28.235892 -0.000000 -0.000000
191
root 15.809047 33.878766 -22.221539 -180.750500 79.111933 -186.805134
Spine -3.921461 -3.233168 0.397929
Head 26.327140 -9.002741 -1.817511
LeftShoulder -15.424783 -30.495926 20.481126
LeftArm -6.522002 3.040473 -14.914187
LeftForeArm 5.017576 -0.000000 -1.260731
LeftHand -6.962788 0.000000 2.558252
LeftHandThumb1 -26.253704 0.000000 33.147579
RightShoulder -13.679297 -6.977297 -9.356896
RightArm 9.167257 39.698346 19.619043
RightForeArm -32.885319 -0.000000 5.356763
RightHand -7.057669 -0.000000 2.956368
RightHandThumb1 -24.326973 -0.000000 -32.862282
LeftUpLeg 17.098382 4.422873 -6.109268
LeftLeg -9.756391 -0.000000 0.000000
LeftFoot -7.540451 27.012105 12.375552
LeftToeBase -141.205164 -0.000000 0.000000
RightUpLeg -35.898096 15.381760 -6.824768
RightLeg 30.855689 -0.000000 -0.000000
RightFoot -13.892946 2.528767 13.772865
RightToeBase 28.037817 -0.000000 -0.000000
192
root 15.706097 33.860542 -22.255534 -181.490051 79.110392 -187.390396
Spine -3.904478 -3.325624 0.200166
Head 26.376047 -9.087406 -1.717736
LeftShoulder -15.371302 -30.488020 20.511009
LeftArm -5.988353 3.169334 -14.932826
LeftForeArm 5.011941 -0.000000 -1.328074
LeftHand -6.807007 -0.000000 2.503017
LeftHandThumb1 -26.253704 0.000000 33.147579
RightShoulder -13.800258 -7.132216 -9.215621
RightArm 9.116602 39.983394 19.429818
RightForeArm -32.840132 -0.000000 5.364739
RightHand -7.047493 -0.000000 3.110731
RightHandThumb1 -24.326973 -0.000000 -32.862282
LeftUpLeg 17.093576 4.463291 -6.285480
LeftLeg -9.681816 -0.000000 0.000000
LeftFoot -7.891432 26.989264 12.569029
LeftToeBase -140.918050 -0.000000 0.000000
RightUpLeg -36.030873 15.211172 -6.887811
RightLeg 31.093527 -0.000000 -0.000000
RightFoot -13.563836 2.221929 13.511210
RightToeBase 27.770792 -0.000000 -0.000000
193
root 15.602791 33.845961 -22.288453 -182.243369 79.110871 -187.984893
Spine -3.876916 -3.447959 0.002591
Head 26.396590 -9.047585 -1.558810
LeftShoulder -15.323629 -30.434943 20.458821
LeftArm -5.444611 3.230033 -14.844927
LeftForeArm 5.148255 0.000000 -1.421569
LeftHand -6.738642 -0.000000 2.321370
LeftHandThumb1 -26.253704 0.000000 33.147579
RightShoulder -13.857386 -7.114663 -9.159184
RightArm 8.967742 40.116236 19.264167
RightForeArm -32.835949 -0.000000 5.409090
RightHand -7.021290 0.000000 3.102898
RightHandThumb1 -24.326973 -0.000000 -32.862282
LeftUpLeg 17.079899 4.450305 -6.478419
LeftLeg -9.596727 -0.000000 0.000000
LeftFoot -8.200761 27.015638 12.728250
LeftToeBase -140.654515 -0.000000 0.000000
RightUpLeg -36.163450 14.932415 -6.877972
RightLeg 31.355364 -0.000000 -0.000000
RightFoot -13.178858 1.821502 13.300045
RightToeBase 27.501662 -0.000000 -0.000000
194
root 15.501756 33.834480 -22.318458 -182.947794 79.141432 -188.520468
Spine -3.842869 -3.468466 -0.196789
Head 26.472702 -9.151421 -1.437775
LeftShoulder -15.199862 -30.475467 20.426175
LeftArm -4.998486 3.459906 -14.819054
LeftForeArm 5.164396 0.000000 -1.461534
LeftHand -6.716053 -0.000000 2.516137
LeftHandThumb1 -26.253704 0.000000 33.147579
RightShoulder -13.950103 -7.068278 -9.115349
RightArm 8.745566 40.112598 19.077583
RightForeArm -32.765223 -0.000000 5.492122
RightHand -7.095150 0.000000 3.207098
RightHandThumb1 -24.326973 -0.000000 -32.862282
LeftUpLeg 17.080560 4.480297 -6.653451
LeftLeg -9.517851 -0.000000 0.000000
LeftFoot -8.537549 26.974970 12.867478
LeftToeBase -140.569798 -0.000000 0.000000
RightUpLeg -36.320927 14.681595 -6.863828
RightLeg 31.664007 -0.000000 -0.000000
RightFoot -12.656112 1.571854 13.274869
RightToeBase 26.754184 -0.000000 -0.000000
195
root 15.401739 33.826340 -22.346685 -183.480991 79.160451 -188.885409
Spine -3.791624 -3.544921 -0.343049
Head 26.505322 -9.163373 -1.329316
LeftShoulder -15.181514 -30.569993 20.403622
LeftArm -4.526876 3.726648 -14.745357
LeftForeArm 5.203283 -0.000000 -1.533328
LeftHand -6.762180 0.000000 2.581862
LeftHandThumb1 -26.253704 0.000000 33.147579
RightShoulder -14.009924 -7.042450 -9.090341
RightArm 8.563296 40.094294 18.937461
RightForeArm -32.692049 -0.000000 5.558981
RightHand -7.168779 0.000000 3.101663
RightHandThumb1 -24.326973 -0.000000 -32.862282
LeftUpLeg 17.058856 4.489201 -6.793060
LeftLeg -9.406052 -0.000000 0.000000
LeftFoot -8.740933 27.015527 13.053620
LeftToeBase -140.260314 -0.000000 0.000000
RightUpLeg -36.457452 14.241142 -6.705670
RightLeg 31.963345 -0.000000 -0.000000
RightFoot -12.083227 1.236664 13.130408
RightToeBase 26.108260 -0.000000 -0.000000
196
root 15.302624 33.820674 -22.375162 -183.946931 79.219126 -189.166999
Spine -3.718537 -3.520099 -0.471936
Head 26.539195 -9.229891 -1.203618
LeftShoulder -15.072998 -30.580413 20.321514
LeftArm -4.071878 3.853087 -14.704970
LeftForeArm 5.221482 -0.000000 -1.553057
LeftHand -6.741702 0.000000 2.545420
LeftHandThumb1 -26.253704 0.000000 33.147579
RightShoulder -14.123237 -7.208378 -9.004672
RightArm 8.473097 40.252338 18.840996
RightForeArm -32.606259 -0.000000 5.579314
RightHand -7.085587 -0.000000 3.084403
RightHandThumb1 -24.326973 -0.000000 -32.862282
LeftUpLeg 17.079591 4.478274 -6.937558
LeftLeg -9.353239 -0.000000 0.000000
LeftFoot -8.923711 27.124359 13.177760
LeftToeBase -140.016591 -0.000000 0.000000
RightUpLeg -36.614000 13.759992 -6.500315
RightLeg 32.318975 -0.000000 -0.000000
RightFoot -11.405958 0.992880 13.012515
RightToeBase 24.635214 -0.000000 -0.000000
